<svg width="35" height="35" viewBox="0 0 35 35" fill="none" xmlns="http://www.w3.org/2000/svg">
<mask id="mask0_410_328" style="mask-type:alpha" maskUnits="userSpaceOnUse" x="0" y="0" width="35" height="35">
<path d="M28.2345 18.8615C28.2926 18.3965 28.3362 17.9315 28.3362 17.4374C28.3362 16.9434 28.2926 16.4784 28.2345 16.0134L31.3006 13.6157C31.5766 13.3978 31.6493 13.0054 31.4749 12.6857L28.5687 7.65792C28.483 7.50799 28.3468 7.39347 28.1843 7.33489C28.0219 7.27631 27.8439 7.27749 27.6823 7.33823L24.064 8.79135C23.3084 8.2101 22.4946 7.73057 21.6082 7.36729L21.056 3.51651C21.032 3.34554 20.9464 3.18921 20.8153 3.07685C20.6842 2.96448 20.5166 2.90381 20.344 2.9062H14.5315C14.1682 2.9062 13.8631 3.16776 13.8195 3.51651L13.2673 7.36729C12.3809 7.73057 11.5671 8.22463 10.8115 8.79135L7.19321 7.33823C7.10895 7.30964 7.02062 7.29492 6.93165 7.29463C6.68461 7.29463 6.43758 7.42542 6.3068 7.65792L3.40055 12.6857C3.21165 13.0054 3.29883 13.3978 3.57493 13.6157L6.64102 16.0134C6.5829 16.4784 6.5393 16.9579 6.5393 17.4374C6.5393 17.917 6.5829 18.3965 6.64102 18.8615L3.57493 21.2592C3.29883 21.4771 3.22618 21.8695 3.40055 22.1892L6.3068 27.217C6.39247 27.3669 6.52872 27.4814 6.69115 27.54C6.85358 27.5986 7.03157 27.5974 7.19321 27.5367L10.8115 26.0835C11.5671 26.6648 12.3809 27.1443 13.2673 27.5076L13.8195 31.3584C13.8631 31.7071 14.1682 31.9687 14.5315 31.9687H20.344C20.7073 31.9687 21.0124 31.7071 21.056 31.3584L21.6082 27.5076C22.4946 27.1443 23.3084 26.6503 24.064 26.0835L27.6823 27.5367C27.7695 27.5657 27.8566 27.5803 27.9438 27.5803C28.1909 27.5803 28.4379 27.4495 28.5687 27.217L31.4749 22.1892C31.6493 21.8695 31.5766 21.4771 31.3006 21.2592L28.2345 18.8615ZM25.3573 16.3767C25.4154 16.8271 25.4299 17.1323 25.4299 17.4374C25.4299 17.7426 25.4009 18.0623 25.3573 18.4982L25.1538 20.1403L26.4471 21.1574L28.0165 22.3781L26.9993 24.1364L25.1538 23.3953L23.6426 22.7849L22.3348 23.7731C21.7099 24.2381 21.1141 24.5868 20.5184 24.8339L18.9781 25.4587L18.7456 27.1007L18.4549 29.0624H16.4206L16.1445 27.1007L15.912 25.4587L14.3716 24.8339C13.7468 24.5723 13.1656 24.2381 12.5843 23.8021L11.262 22.7849L9.72165 23.4098L7.87618 24.1509L6.85899 22.3926L8.42837 21.172L9.72165 20.1548L9.51821 18.5128C9.47461 18.0623 9.44555 17.7281 9.44555 17.4374C9.44555 17.1468 9.47461 16.8126 9.51821 16.3767L9.72165 14.7346L8.42837 13.7174L6.85899 12.4968L7.87618 10.7385L9.72165 11.4796L11.2329 12.0899L12.5407 11.1018C13.1656 10.6368 13.7613 10.2881 14.3571 10.041L15.8974 9.4162L16.1299 7.77416L16.4206 5.81245H18.4404L18.7165 7.77416L18.949 9.4162L20.4893 10.041C21.1141 10.3026 21.6954 10.6368 22.2766 11.0728L23.599 12.0899L25.1393 11.4651L26.9848 10.724L28.002 12.4823L26.4471 13.7174L25.1538 14.7346L25.3573 16.3767ZM17.4377 11.6249C14.2263 11.6249 11.6252 14.226 11.6252 17.4374C11.6252 20.6489 14.2263 23.2499 17.4377 23.2499C20.6491 23.2499 23.2502 20.6489 23.2502 17.4374C23.2502 14.226 20.6491 11.6249 17.4377 11.6249ZM17.4377 20.3437C15.8393 20.3437 14.5315 19.0359 14.5315 17.4374C14.5315 15.839 15.8393 14.5312 17.4377 14.5312C19.0362 14.5312 20.344 15.839 20.344 17.4374C20.344 19.0359 19.0362 20.3437 17.4377 20.3437Z" fill="black"/>
</mask>
<g mask="url(#mask0_410_328)">
<rect x="-7" y="-7" width="48" height="48" fill="#788699"/>
</g>
</svg>
